<mxfile host="app.diagrams.net" modified="2024-01-24T08:15:09.531Z" agent="Mozilla/5.0 (Windows NT 10.0; Win64; x64) AppleWebKit/537.36 (KHTML, like Gecko) Chrome/120.0.0.0 Safari/537.36" version="23.0.0" etag="Cb22QqyEHBPUJ-EInco0" type="github">
  <diagram name="Page-1" id="8Q_gx4w2C716jSBW1bTz">
    <mxGraphModel>
      <root>
        <mxCell id="0" />
        <mxCell id="1" parent="0" />
      </root>
    </mxGraphModel>
  </diagram>
</mxfile>
